<?xml version="1.0" encoding="utf-8"?><svg xmlns="http://www.w3.org/2000/svg" xmlns:xlink="http://www.w3.org/1999/xlink"><symbol viewBox="0 0 24 16" id="arrow" xmlns="http://www.w3.org/2000/svg"><path d="M23.707 8.707a1 1 0 000-1.414L17.343.929a1 1 0 10-1.414 1.414L21.586 8l-5.657 5.657a1 1 0 001.414 1.414l6.364-6.364zM0 9h23V7H0v2z"/></symbol><symbol viewBox="0 0 13 22" id="arrow-slider" xmlns="http://www.w3.org/2000/svg"><path d="M11.854 12.032l-8.575 8.961c-.546.57-1.43.57-1.976 0a1.506 1.506 0 010-2.063L8.891 11 1.304 3.07a1.507 1.507 0 010-2.063c.545-.57 1.43-.57 1.975 0l8.575 8.961c.273.285.409.659.409 1.032s-.136.747-.41 1.032z"/></symbol><symbol viewBox="0 0 21 16" id="burger" xmlns="http://www.w3.org/2000/svg"><path d="M0 .781h21v1.313H0zm0 6.563h21v1.313H0zm0 6.562h21v1.313H0z"/></symbol><symbol viewBox="0 0 17 13" id="car" xmlns="http://www.w3.org/2000/svg"><path d="M1.001 3.998c.038-.126.173-.224.286-.224h1.462c.112 0 .247.098.285.224.037.123.065.233.083.337l.977-3.076c.161-.507.588-.848 1.061-.848h7.47c.473 0 .9.34 1.061.848l.977 3.076c.018-.103.046-.214.083-.337.038-.126.173-.224.286-.224h1.462c.112 0 .247.098.285.224.148.49.148.772 0 1.262-.038.126-.173.224-.285.224h-1.467l.023.07c.298.112.513.432.513.809v5.638c0 .226-.161.41-.36.41h-1.814c-.199 0-.36-.184-.36-.41v-1.997H4.75v1.997c0 .226-.161.41-.36.41H2.578c-.2 0-.36-.184-.36-.41V6.363c0-.377.215-.697.513-.81l.022-.069H1.286c-.112 0-.247-.098-.285-.224-.148-.49-.148-.771 0-1.262zM12.487 1.92H5.294l-1.14 3.59h9.472l-1.14-3.59zm-.2 6.117h1.516c.326 0 .59-.3.59-.67 0-.371-.264-.672-.59-.672h-1.517c-.325 0-.59.3-.59.671 0 .37.265.67.59.67zm-8.31 0h1.517c.326 0 .59-.3.59-.67 0-.371-.264-.672-.59-.672H3.977c-.325 0-.59.3-.59.671 0 .37.265.67.59.67z"/></symbol><symbol viewBox="0 0 12 14" id="phone" xmlns="http://www.w3.org/2000/svg"><path d="M10.656 9.548c-.778-.671-1.567-1.078-2.335-.408l-.46.406c-.335.294-.959 1.669-3.372-1.134-2.412-2.799-.977-3.234-.64-3.526l.46-.406c.765-.672.477-1.518-.075-2.39l-.332-.527C3.348.693 2.745.123 1.979.794l-.414.366C1.226 1.409.28 2.218.05 3.757c-.276 1.845.595 3.959 2.593 6.278C4.637 12.355 6.59 13.52 8.44 13.5a3.88 3.88 0 002.756-1.153l.416-.366c.764-.67.29-1.353-.49-2.026l-.467-.407z"/></symbol></svg>